<svg width="19" height="14" viewBox="0 0 19 14" fill="none" xmlns="http://www.w3.org/2000/svg">
<path d="M15.0029 12.9912L3.56641 1.56836C3.36816 1.37012 3.36816 1.02148 3.56641 0.823242C3.77832 0.618164 4.11328 0.618164 4.31836 0.823242L15.748 12.2461C15.9531 12.458 15.9736 12.7656 15.748 12.9912C15.5361 13.2168 15.2148 13.2031 15.0029 12.9912ZM9.66406 1.25391C15.1328 1.25391 18.9268 5.67676 18.9268 7.06445C18.9268 7.85059 17.6895 9.62793 15.6318 11.002L13.1641 8.54102C13.3623 8.08984 13.4854 7.59082 13.4854 7.06445C13.4854 4.95215 11.7695 3.24316 9.66406 3.24316C9.1377 3.24316 8.63184 3.35938 8.1875 3.56445L6.42383 1.80078C7.4082 1.46582 8.50195 1.25391 9.66406 1.25391ZM9.66406 12.875C4.25684 12.875 0.394531 8.44531 0.394531 7.06445C0.394531 6.25781 1.71387 4.41211 3.88086 3.01758L6.24609 5.37598C5.98633 5.88867 5.84277 6.45605 5.84277 7.06445C5.84277 9.16992 7.55176 10.8857 9.66406 10.8857C10.2725 10.8857 10.8467 10.7422 11.3457 10.4756L13.1367 12.2598C12.084 12.6357 10.915 12.875 9.66406 12.875ZM11.8926 7.26953L9.45215 4.8291C10.8877 4.65137 12.0566 5.99121 11.8926 7.26953ZM9.66406 9.31348C8.41992 9.31348 7.41504 8.30859 7.41504 7.06445C7.41504 6.90039 7.43555 6.74316 7.46973 6.59277L10.1357 9.25879C9.98535 9.29297 9.82129 9.31348 9.66406 9.31348Z" fill="#999999"/>
</svg>
