<svg width="19" height="12" viewBox="0 0 19 12" fill="none" xmlns="http://www.w3.org/2000/svg">
<path d="M9.66406 11.875C4.25684 11.875 0.394531 7.44531 0.394531 6.06445C0.394531 4.67676 4.25684 0.253906 9.66406 0.253906C15.1328 0.253906 18.9268 4.67676 18.9268 6.06445C18.9268 7.44531 15.1396 11.875 9.66406 11.875ZM9.66406 9.88574C11.7695 9.88574 13.4854 8.16992 13.4854 6.06445C13.4854 3.95215 11.7695 2.24316 9.66406 2.24316C7.55176 2.24316 5.84277 3.95215 5.84277 6.06445C5.84277 8.16992 7.55176 9.88574 9.66406 9.88574ZM9.66406 7.45898C8.8916 7.45898 8.26953 6.83691 8.26953 6.06445C8.26953 5.29199 8.8916 4.66992 9.66406 4.66992C10.4365 4.66992 11.0586 5.29199 11.0586 6.06445C11.0586 6.83691 10.4365 7.45898 9.66406 7.45898Z" fill="#999999"/>
</svg>
